<svg width="27" height="27" viewBox="0 0 27 27" fill="none" xmlns="http://www.w3.org/2000/svg">
<path d="M13.4641 25.5259C6.8105 25.5259 1.40234 20.1177 1.40234 13.4641C1.40234 6.8105 6.8105 1.40234 13.4641 1.40234C20.1177 1.40234 25.5259 6.8105 25.5259 13.4641C25.5259 20.1177 20.1177 25.5259 13.4641 25.5259ZM13.4641 3.08538C7.74178 3.08538 3.08538 7.74178 3.08538 13.4641C3.08538 19.1864 7.74178 23.8428 13.4641 23.8428C19.1864 23.8428 23.8428 19.1864 23.8428 13.4641C23.8428 7.74178 19.1864 3.08538 13.4641 3.08538Z" fill="#333333" fill-opacity="0.8"/>
<path d="M1.15234 13.4641C1.15234 20.2558 6.67243 25.7759 13.4641 25.7759C20.2558 25.7759 25.7759 20.2558 25.7759 13.4641C25.7759 6.67243 20.2558 1.15234 13.4641 1.15234C6.67243 1.15234 1.15234 6.67243 1.15234 13.4641ZM3.33538 13.4641C3.33538 7.87985 7.87985 3.33538 13.4641 3.33538C19.0483 3.33538 23.5928 7.87985 23.5928 13.4641C23.5928 19.0484 19.0483 23.5928 13.4641 23.5928C7.87985 23.5928 3.33538 19.0484 3.33538 13.4641Z" stroke="#333333" stroke-opacity="0.8" stroke-width="0.5"/>
<path d="M17.9525 14.3061H8.97628C8.51625 14.3061 8.13477 13.9246 8.13477 13.4646C8.13477 13.0045 8.51625 12.623 8.97628 12.623H17.9525C18.4125 12.623 18.794 13.0045 18.794 13.4646C18.794 13.9246 18.4125 14.3061 17.9525 14.3061Z" fill="#333333" fill-opacity="0.8"/>
<path d="M8.97628 14.5561H17.9525C18.5506 14.5561 19.044 14.0627 19.044 13.4646C19.044 12.8665 18.5506 12.373 17.9525 12.373H8.97628C8.37818 12.373 7.88477 12.8665 7.88477 13.4646C7.88477 14.0627 8.37818 14.5561 8.97628 14.5561Z" stroke="#333333" stroke-opacity="0.8" stroke-width="0.5"/>
<path d="M13.4646 18.794C13.0045 18.794 12.623 18.4125 12.623 17.9525V8.97628C12.623 8.51625 13.0045 8.13477 13.4646 8.13477C13.9246 8.13477 14.3061 8.51625 14.3061 8.97628V17.9525C14.3061 18.4125 13.9246 18.794 13.4646 18.794Z" fill="#333333" fill-opacity="0.8"/>
<path d="M12.373 17.9525C12.373 18.5506 12.8665 19.044 13.4646 19.044C14.0627 19.044 14.5561 18.5506 14.5561 17.9525V8.97628C14.5561 8.37818 14.0627 7.88477 13.4646 7.88477C12.8665 7.88477 12.373 8.37818 12.373 8.97628V17.9525Z" stroke="#333333" stroke-opacity="0.8" stroke-width="0.5"/>
</svg>
