<svg width="14" height="14" viewBox="0 0 14 14" fill="none" xmlns="http://www.w3.org/2000/svg">
<path d="M8.15452 3.04582C8.02619 3.04582 7.89788 2.9875 7.81621 2.8825L6.66119 1.44165C6.50952 1.25498 6.53869 0.974991 6.73119 0.829158C6.91785 0.677491 7.19205 0.706655 7.34371 0.899155L8.4987 2.34001C8.65037 2.52667 8.62121 2.80667 8.42871 2.9525C8.34704 3.01083 8.24785 3.04582 8.15452 3.04582Z" fill="#333333" fill-opacity="0.8"/>
<path d="M7.0003 13.2701C3.9028 13.2701 1.37695 10.7501 1.37695 7.64678C1.37695 4.54345 3.89696 2.02344 7.0003 2.02344C7.4028 2.02344 7.81114 2.07011 8.25448 2.17511C8.48781 2.22761 8.63947 2.46679 8.58114 2.70012C8.52864 2.93346 8.28946 3.08512 8.05613 3.02679C7.68279 2.93929 7.3328 2.89844 7.0003 2.89844C4.38113 2.89844 2.25195 5.02761 2.25195 7.64678C2.25195 10.2659 4.38113 12.3951 7.0003 12.3951C9.61946 12.3951 11.7486 10.2659 11.7486 7.64678C11.7486 6.63178 11.4161 5.65179 10.7861 4.81179C10.6403 4.61929 10.6811 4.34513 10.8736 4.1993C11.0661 4.05346 11.3403 4.09427 11.4861 4.28677C12.2328 5.27844 12.6236 6.43928 12.6236 7.64678C12.6236 10.7501 10.0978 13.2701 7.0003 13.2701Z" fill="#333333" fill-opacity="0.8"/>
<path d="M9.08315 9.92924C9.00732 9.92924 8.93148 9.91175 8.86148 9.86508L7.05315 8.78591C6.60398 8.51758 6.27148 7.92841 6.27148 7.40924V5.01758C6.27148 4.77841 6.46982 4.58008 6.70898 4.58008C6.94815 4.58008 7.14648 4.77841 7.14648 5.01758V7.40924C7.14648 7.61924 7.32148 7.92841 7.50232 8.03341L9.31065 9.11258C9.52065 9.23508 9.58482 9.50341 9.46232 9.71341C9.37482 9.85341 9.22898 9.92924 9.08315 9.92924Z" fill="#333333" fill-opacity="0.8"/>
</svg>
