<svg width="27" height="27" viewBox="0 0 27 27" fill="none" xmlns="http://www.w3.org/2000/svg">
<path d="M13.5 17.7188C11.1713 17.7188 9.28125 15.8288 9.28125 13.5C9.28125 11.1713 11.1713 9.28125 13.5 9.28125C15.8288 9.28125 17.7188 11.1713 17.7188 13.5C17.7188 15.8288 15.8288 17.7188 13.5 17.7188ZM13.5 10.9688C12.105 10.9688 10.9688 12.105 10.9688 13.5C10.9688 14.895 12.105 16.0312 13.5 16.0312C14.895 16.0312 16.0312 14.895 16.0312 13.5C16.0312 12.105 14.895 10.9688 13.5 10.9688Z" fill="#333333" fill-opacity="0.8"/>
<path d="M9.13125 13.5C9.13125 15.9116 11.0884 17.8687 13.5 17.8687C15.9116 17.8687 17.8687 15.9116 17.8687 13.5C17.8687 11.0884 15.9116 9.13125 13.5 9.13125C11.0884 9.13125 9.13125 11.0884 9.13125 13.5ZM11.1187 13.5C11.1187 12.1878 12.1878 11.1187 13.5 11.1187C14.8122 11.1187 15.8812 12.1878 15.8812 13.5C15.8812 14.8122 14.8122 15.8812 13.5 15.8812C12.1878 15.8812 11.1187 14.8122 11.1187 13.5Z" stroke="#333333" stroke-opacity="0.8" stroke-width="0.3"/>
<path d="M17.1112 24.9641C16.875 24.9641 16.6388 24.9303 16.4025 24.8741C15.705 24.6828 15.12 24.2441 14.7487 23.6253L14.6137 23.4003C13.95 22.2528 13.0387 22.2528 12.375 23.4003L12.2513 23.6141C11.88 24.2441 11.295 24.6941 10.5975 24.8741C9.88875 25.0653 9.1575 24.9641 8.53875 24.5928L6.60375 23.4791C5.9175 23.0853 5.4225 22.4441 5.20875 21.6678C5.00625 20.8916 5.1075 20.0928 5.50125 19.4066C5.8275 18.8328 5.9175 18.3153 5.72625 17.9891C5.535 17.6628 5.05125 17.4716 4.3875 17.4716C2.745 17.4716 1.40625 16.1328 1.40625 14.4903V12.5103C1.40625 10.8678 2.745 9.52907 4.3875 9.52907C5.05125 9.52907 5.535 9.33782 5.72625 9.01157C5.9175 8.68532 5.83875 8.16782 5.50125 7.59407C5.1075 6.90782 5.00625 6.09782 5.20875 5.33282C5.41125 4.55657 5.90625 3.91532 6.60375 3.52157L8.55 2.40782C9.82125 1.65407 11.4975 2.09282 12.2625 3.38657L12.3975 3.61157C13.0613 4.75907 13.9725 4.75907 14.6363 3.61157L14.76 3.39782C15.525 2.09282 17.2013 1.65407 18.4837 2.41907L20.4187 3.53282C21.105 3.92657 21.6 4.56782 21.8137 5.34407C22.0162 6.12032 21.915 6.91907 21.5212 7.60532C21.195 8.17907 21.105 8.69657 21.2962 9.02282C21.4875 9.34907 21.9713 9.54032 22.635 9.54032C24.2775 9.54032 25.6163 10.8791 25.6163 12.5216V14.5016C25.6163 16.1441 24.2775 17.4828 22.635 17.4828C21.9713 17.4828 21.4875 17.6741 21.2962 18.0003C21.105 18.3266 21.1837 18.8441 21.5212 19.4178C21.915 20.1041 22.0275 20.9141 21.8137 21.6791C21.6112 22.4553 21.1162 23.0966 20.4187 23.4903L18.4725 24.6041C18.045 24.8403 17.5837 24.9641 17.1112 24.9641ZM13.5 20.8016C14.5013 20.8016 15.435 21.4316 16.0763 22.5453L16.2 22.7591C16.335 22.9953 16.56 23.1641 16.83 23.2316C17.1 23.2991 17.37 23.2653 17.595 23.1303L19.5413 22.0053C19.8338 21.8366 20.0588 21.5553 20.1488 21.2178C20.2388 20.8803 20.1937 20.5316 20.025 20.2391C19.3837 19.1366 19.305 18.0003 19.8 17.1341C20.295 16.2678 21.3188 15.7728 22.6012 15.7728C23.3213 15.7728 23.895 15.1991 23.895 14.4791V12.4991C23.895 11.7903 23.3213 11.2053 22.6012 11.2053C21.3188 11.2053 20.295 10.7103 19.8 9.84407C19.305 8.97782 19.3837 7.84157 20.025 6.73907C20.1937 6.44657 20.2388 6.09782 20.1488 5.76032C20.0588 5.42282 19.845 5.15282 19.5525 4.97282L17.6062 3.85907C17.1225 3.56657 16.4813 3.73532 16.1888 4.23032L16.065 4.44407C15.4237 5.55782 14.49 6.18782 13.4887 6.18782C12.4875 6.18782 11.5538 5.55782 10.9125 4.44407L10.7887 4.21907C10.5075 3.74657 9.8775 3.57782 9.39375 3.85907L7.4475 4.98407C7.155 5.15282 6.93 5.43407 6.84 5.77157C6.75 6.10907 6.795 6.45782 6.96375 6.75032C7.605 7.85282 7.68375 8.98907 7.18875 9.85532C6.69375 10.7216 5.67 11.2166 4.3875 11.2166C3.6675 11.2166 3.09375 11.7903 3.09375 12.5103V14.4903C3.09375 15.1991 3.6675 15.7841 4.3875 15.7841C5.67 15.7841 6.69375 16.2791 7.18875 17.1453C7.68375 18.0116 7.605 19.1478 6.96375 20.2503C6.795 20.5428 6.75 20.8916 6.84 21.2291C6.93 21.5666 7.14375 21.8366 7.43625 22.0166L9.3825 23.1303C9.61875 23.2766 9.9 23.3103 10.1587 23.2428C10.4288 23.1753 10.6538 22.9953 10.8 22.7591L10.9237 22.5453C11.565 21.4428 12.4987 20.8016 13.5 20.8016Z" fill="#333333" fill-opacity="0.8"/>
<path d="M5.3709 19.3323C4.95727 20.0535 4.8515 20.8926 5.06359 21.7057L5.06413 21.7076C5.28823 22.5215 5.80803 23.1954 6.5291 23.6092L8.46158 24.7214C8.46197 24.7217 8.46235 24.7219 8.46274 24.7221C9.11636 25.1139 9.88884 25.2204 10.6358 25.0191C11.3729 24.8287 11.9899 24.353 12.3805 23.6902L12.3811 23.6892L12.5048 23.4755L12.5048 23.4754C12.826 22.9202 13.1799 22.6897 13.4944 22.6897C13.8088 22.6897 14.1628 22.9202 14.4839 23.4754L14.4839 23.4754L14.4851 23.4775L14.6201 23.7025C15.0116 24.3549 15.6287 24.8174 16.3628 25.0187L16.3628 25.0188L5.50125 19.4066M5.3709 19.3323C5.37098 19.3322 5.37106 19.3321 5.37114 19.3319L5.50125 19.4066M5.3709 19.3323C5.37088 19.3324 5.37087 19.3324 5.37086 19.3324L5.50125 19.4066M5.3709 19.3323C5.52797 19.0561 5.62404 18.8004 5.65976 18.5809C5.69558 18.3609 5.66927 18.1885 5.59685 18.0649C5.4476 17.8103 5.0368 17.6216 4.3875 17.6216C2.66216 17.6216 1.25625 16.2157 1.25625 14.4903V12.5103C1.25625 10.785 2.66216 9.37907 4.3875 9.37907C5.0368 9.37907 5.4476 9.19031 5.59685 8.93571C5.74488 8.68318 5.70244 8.23193 5.37196 7.67013L5.37114 7.66873L5.37114 7.66872C4.95741 6.94764 4.85136 6.09704 5.06368 5.2947M5.50125 19.4066C5.8275 18.8328 5.9175 18.3153 5.72625 17.9891C5.535 17.6628 5.05125 17.4716 4.3875 17.4716C2.745 17.4716 1.40625 16.1328 1.40625 14.4903V12.5103C1.40625 10.8678 2.745 9.52907 4.3875 9.52907C5.05125 9.52907 5.535 9.33782 5.72625 9.01157C5.9175 8.68532 5.83875 8.16782 5.50125 7.59407C5.1075 6.90782 5.00625 6.09782 5.20875 5.33282M5.06368 5.2947C5.06365 5.29478 5.06363 5.29487 5.06361 5.29496L5.20875 5.33282M5.06368 5.2947C5.27647 4.47928 5.79712 3.80481 6.52961 3.39117L6.52925 3.39138L6.60375 3.52157M5.06368 5.2947C5.0637 5.29461 5.06372 5.29452 5.06374 5.29444L5.20875 5.33282M5.20875 5.33282C5.41125 4.55657 5.90625 3.91532 6.60375 3.52157M14.76 3.39782C15.525 2.09282 17.2013 1.65407 18.4837 2.41907M14.76 3.39782L21.8137 21.6791M14.76 3.39782L14.6363 3.61157C13.9725 4.75907 13.0613 4.75907 12.3975 3.61157L12.2625 3.38657M14.76 3.39782L20.4936 3.40282L20.4187 3.53282M18.4837 2.41907L20.4187 3.53282M18.4837 2.41907L18.5606 2.29025L20.4934 3.40272L20.4187 3.53282M18.4837 2.41907L18.5586 2.28907L18.5596 2.28964C17.2044 1.48204 15.4367 1.94677 14.6306 3.32196L14.6302 3.32267L14.5064 3.53642L14.5064 3.53647C14.1853 4.09164 13.8313 4.3222 13.5169 4.3222C13.2024 4.3222 12.8485 4.09164 12.5273 3.53647L12.5274 3.53646L12.5261 3.5344L12.3916 3.31022L12.2625 3.38657M20.4187 3.53282C21.105 3.92657 21.6 4.56782 21.8137 5.34407C22.0162 6.12032 21.915 6.91907 21.5212 7.60532M21.5212 7.60532C21.195 8.17907 21.105 8.69657 21.2962 9.02282C21.4875 9.34907 21.9713 9.54032 22.635 9.54032C24.2775 9.54032 25.6163 10.8791 25.6163 12.5216V14.5016C25.6163 16.1441 24.2775 17.4828 22.635 17.4828C21.9713 17.4828 21.4875 17.6741 21.2962 18.0003C21.105 18.3266 21.1837 18.8441 21.5212 19.4178C21.915 20.1041 22.0275 20.9141 21.8137 21.6791M21.5212 7.60532L21.6514 7.67997C21.6514 7.67992 21.6514 7.67986 21.6515 7.6798C21.6515 7.67969 21.6516 7.67958 21.6516 7.67947L21.5212 7.60532ZM21.8137 21.6791L21.9582 21.7194C21.9583 21.719 21.9585 21.7186 21.9586 21.7181C21.9587 21.7177 21.9588 21.7173 21.9589 21.7169L21.8137 21.6791ZM12.2625 3.38657L12.3911 3.3094L12.3914 3.30981C11.5852 1.94692 9.81837 1.48215 8.4745 2.2782M12.2625 3.38657C11.4975 2.09282 9.82125 1.65407 8.55 2.40782M8.4745 2.2782L6.53001 3.39095L6.60375 3.52157M8.4745 2.2782C8.47417 2.2784 8.47383 2.2786 8.4735 2.2788L8.55 2.40782M8.4745 2.2782L8.4755 2.27763L8.55 2.40782M6.60375 3.52157L8.55 2.40782M20.025 20.2391L19.8951 20.314C20.0435 20.5712 20.0839 20.879 20.0038 21.1792C19.9245 21.4766 19.7257 21.7257 19.4663 21.8754L19.4662 21.8755L17.5199 23.0005L17.5199 23.0004L17.5178 23.0017C17.3302 23.1143 17.1017 23.1449 16.8664 23.086C16.635 23.0282 16.4444 22.8845 16.3302 22.6846L16.3298 22.6839L16.2062 22.4705C16.2062 22.4704 16.2062 22.4703 16.2061 22.4703C15.5467 21.3251 14.5701 20.6516 13.5 20.6516C12.4292 20.6516 11.453 21.3371 10.7941 22.4699L10.7939 22.4702L10.6713 22.6819C10.5429 22.8884 10.3491 23.0406 10.1224 23.0973L10.1209 23.0977C9.89925 23.1555 9.6606 23.1261 9.46145 23.0028L9.4615 23.0027L9.457 23.0001L7.51288 21.8876C7.25154 21.7262 7.06409 21.4873 6.98494 21.1904C6.90491 20.8903 6.94527 20.5827 7.09354 20.3255C7.75328 19.1911 7.8478 17.9963 7.31899 17.0709C6.78934 16.144 5.70564 15.6341 4.3875 15.6341C3.75119 15.6341 3.24375 15.1171 3.24375 14.4903V12.5103C3.24375 11.8732 3.75034 11.3666 4.3875 11.3666C5.70564 11.3666 6.78934 10.8566 7.31899 9.92974C7.8478 9.00433 7.75328 7.80955 7.09355 6.67513C6.94527 6.41798 6.90491 6.1103 6.98494 5.81022C7.06424 5.51284 7.26303 5.26367 7.52246 5.114L7.52257 5.11394L9.46882 3.98894L9.46914 3.98875C9.88064 3.7495 10.4185 3.89303 10.6586 4.29369L10.7811 4.51636L10.781 4.51637L10.7825 4.51892C11.4419 5.66422 12.4186 6.33782 13.4887 6.33782C14.5588 6.33782 15.5354 5.66432 16.1948 4.51918C16.1949 4.51909 16.1949 4.51901 16.195 4.51892L16.3179 4.30663C16.318 4.30644 16.3181 4.30624 16.3182 4.30605C16.5699 3.8809 17.1189 3.73966 17.5286 3.98743L17.5286 3.98747L17.5317 3.98926L19.4758 5.10178C19.7372 5.26323 19.9247 5.50212 20.0038 5.79897C20.0838 6.09903 20.0435 6.40668 19.8952 6.66382C19.2355 7.79825 19.1409 8.99306 19.6698 9.91849C20.1994 10.8454 21.2831 11.3553 22.6012 11.3553C23.2376 11.3553 23.745 11.8723 23.745 12.4991V14.4791C23.745 15.1162 23.2384 15.6228 22.6012 15.6228C21.2831 15.6228 20.1994 16.1328 19.6698 17.0596C19.1409 17.9851 19.2355 19.18 19.8953 20.3145L20.025 20.2391ZM20.025 20.2391C19.3837 19.1366 19.305 18.0003 19.8 17.1341C20.295 16.2678 21.3188 15.7728 22.6012 15.7728C23.3213 15.7728 23.895 15.1991 23.895 14.4791V12.4991C23.895 11.7903 23.3213 11.2053 22.6012 11.2053C21.3188 11.2053 20.295 10.7103 19.8 9.84407C19.305 8.97782 19.3837 7.84157 20.025 6.73907L16.2 22.7591C16.335 22.9953 16.56 23.1641 16.83 23.2316C17.1 23.2991 17.37 23.2653 17.595 23.1303L19.5413 22.0053C19.8338 21.8366 20.0588 21.5553 20.1488 21.2178C20.2388 20.8803 20.1937 20.5316 20.025 20.2391ZM20.4931 23.6206L20.4933 23.6205L20.4187 23.4903L20.4925 23.6209C20.4927 23.6208 20.4929 23.6207 20.4931 23.6206ZM9.39375 3.85907L7.4475 4.98407L10.7887 4.21907C10.5075 3.74657 9.8775 3.57782 9.39375 3.85907Z" stroke="#333333" stroke-opacity="0.8" stroke-width="0.3"/>
</svg>
