<svg width="16" height="16" viewBox="0 0 16 16" fill="none" xmlns="http://www.w3.org/2000/svg">
<path d="M8.2835 0C4.11529 0 0.736328 3.58179 0.736328 7.99994C0.736328 12.4182 4.11529 16 8.2835 16C12.4517 16 15.8307 12.4182 15.8307 7.99994C15.8307 3.58179 12.4517 0 8.2835 0ZM9.51609 11.9198C9.51609 12.6385 8.96144 13.2264 8.2835 13.2264C7.60534 13.2264 7.05083 12.6385 7.05083 11.9198V8.00003C7.05083 7.28132 7.60534 6.6934 8.2835 6.6934C8.96144 6.6934 9.51609 7.28132 9.51609 8.00003V11.9198ZM8.2835 5.3868C7.60534 5.3868 7.05083 4.79887 7.05083 4.08028C7.05083 3.36154 7.60534 2.77365 8.2835 2.77365C8.96144 2.77365 9.51609 3.36154 9.51609 4.08028C9.51609 4.7989 8.96144 5.3868 8.2835 5.3868Z" fill="#333333" fill-opacity="0.4"/>
</svg>
