<svg width="17" height="16" viewBox="0 0 17 16" fill="none" xmlns="http://www.w3.org/2000/svg">
<path d="M8.84961 0C4.43131 0 0.849609 3.58179 0.849609 7.99994C0.849609 12.4182 4.43131 16 8.84961 16C13.2679 16 16.8496 12.4182 16.8496 7.99994C16.8496 3.58179 13.2679 0 8.84961 0ZM10.1562 11.9198C10.1562 12.6385 9.56823 13.2264 8.84961 13.2264C8.13076 13.2264 7.54298 12.6385 7.54298 11.9198V8.00003C7.54298 7.28132 8.13076 6.6934 8.84961 6.6934C9.56823 6.6934 10.1562 7.28132 10.1562 8.00003V11.9198ZM8.84961 5.3868C8.13076 5.3868 7.54298 4.79887 7.54298 4.08028C7.54298 3.36154 8.13076 2.77365 8.84961 2.77365C9.56823 2.77365 10.1562 3.36154 10.1562 4.08028C10.1562 4.7989 9.56823 5.3868 8.84961 5.3868Z" fill="#DF2E2D"/>
</svg>
