<svg width="18" height="18" viewBox="0 0 18 18" fill="none" xmlns="http://www.w3.org/2000/svg">
<path d="M8.99935 0.666016C4.39697 0.666016 0.666016 4.39697 0.666016 8.99935C0.666016 13.6017 4.39697 17.3327 8.99935 17.3327C13.6017 17.3327 17.3327 13.6017 17.3327 8.99935C17.3327 4.39697 13.6017 0.666016 8.99935 0.666016ZM13.3834 7.02564L8.28518 12.124C8.12628 12.2829 7.91799 12.3623 7.70973 12.3623C7.50146 12.3623 7.29319 12.2829 7.13429 12.124L7.13383 12.1235L4.61526 9.60496C4.29745 9.28715 4.29744 8.77186 4.61526 8.45406C4.93307 8.13625 5.44835 8.13624 5.76617 8.45406L7.70973 10.3976L12.2325 5.87477C12.5503 5.55696 13.0656 5.55694 13.3834 5.87477C13.7013 6.19256 13.7013 6.70783 13.3834 7.02564Z" fill="#5EC2B7"/>
</svg>
